<?xml version="1.0" encoding="utf-8"?>
<!-- Generator: Adobe Illustrator 19.0.0, SVG Export Plug-In . SVG Version: 6.00 Build 0)  -->
<svg version="1.1" id="图层_1" xmlns="http://www.w3.org/2000/svg" xmlns:xlink="http://www.w3.org/1999/xlink" x="0px" y="0px"
	 viewBox="-320 495.5 200 200" style="enable-background:new -320 495.5 200 200;" xml:space="preserve">
<style type="text/css">
	.st0{fill:#737779;}
</style>
<path class="st0" d="M-121,589.4c0,0-0.8-2.5-1.7-3.3l-4.2-8.3c-4.2-6.7-10-15-18.3-24.2c-15.8-17.5-40.8-35.8-75-35.8
	s-59.2,18.3-75,35.8c-8.3,9.2-14.2,17.5-18.3,24.2c-1.7,3.3-3.3,5.8-4.2,8.3c-0.8,0.8-1.7,3.3-1.7,3.3c-0.8,2.5-0.8,5,0,6.7
	c0,0,0.8,2.5,1.7,3.3l4.2,8.3c4.2,6.7,10,15,18.3,24.2c15.8,17.5,40.8,35.8,75,35.8s59.2-18.3,75-35.8c8.3-9.2,14.2-17.5,18.3-24.2
	c1.7-3.3,3.3-5.8,4.2-8.3c0.8-0.8,1.7-3.3,1.7-3.3C-120.2,593.6-120.2,591.9-121,589.4L-121,589.4z M-141,598.6
	c-3.3,5.8-9.2,14.2-15.8,21.7c-15,15.8-35.8,30.8-63.3,30.8s-48.3-15-63.3-30.8c-7.5-7.5-12.5-15.8-15.8-21.7
	c-1.7-2.5-2.5-4.2-3.3-5.8c0.8-1.7,1.7-3.3,3.3-5.8c4.2-5.8,9.2-14.2,15.8-21.7c15-15.8,35.8-30.8,63.3-30.8s48.3,15,63.3,30.8
	c7.5,7.5,12.5,15.8,15.8,21.7c1.7,2.5,2.5,4.2,3.3,5.8C-138.5,594.4-140.2,596.1-141,598.6z"/>
<path class="st0" d="M-220.2,562.8c-15,0-28.3,13.3-28.3,30s13.3,30,28.3,30s28.3-13.3,28.3-30S-205.2,562.8-220.2,562.8z
	 M-265.2,592.8c0-25,20-46.7,45-46.7s45,21.7,45,46.7s-20,46.7-45,46.7S-265.2,617.8-265.2,592.8z"/>
</svg>
