<?xml version="1.0" encoding="utf-8"?>
<!-- Generator: Adobe Illustrator 19.0.0, SVG Export Plug-In . SVG Version: 6.00 Build 0)  -->
<svg version="1.1" id="图层_1" xmlns="http://www.w3.org/2000/svg" xmlns:xlink="http://www.w3.org/1999/xlink" x="0px" y="0px"
	 viewBox="-320 495.5 200 200" style="enable-background:new -320 495.5 200 200;" xml:space="preserve">
<style type="text/css">
	.st0{fill:#737779;}
</style>
<path class="st0" d="M-170.9,590.1h-5.4v-43.6c0-21.1-19.5-38.2-43.6-38.2s-43.6,17.1-43.6,38.2v43.6h-5.4c-9,0-16.4,7.3-16.4,16.4
	v60c0,9,7.3,16.4,16.4,16.4h98.1c9,0,16.4-7.3,16.4-16.4v-60C-154.6,597.4-161.9,590.1-170.9,590.1L-170.9,590.1z M-209.1,647v8.5
	c0,6-4.9,10.9-10.9,10.9c-6,0-10.9-4.9-10.9-10.9V647c-6.5-3.8-10.9-10.7-10.9-18.8c0-12,9.8-21.8,21.8-21.8s21.8,9.8,21.8,21.8
	C-198.2,636.3-202.6,643.3-209.1,647L-209.1,647z M-198.2,584.6c0,1.9-0.5,3.7-1.3,5.5h-40.9c-0.8-1.7-1.3-3.5-1.3-5.5v-38.2
	c0-9,9.8-16.4,21.8-16.4s21.8,7.3,21.8,16.4V584.6z"/>
</svg>
