<?xml version="1.0" encoding="utf-8"?>
<!-- Generator: Adobe Illustrator 19.0.0, SVG Export Plug-In . SVG Version: 6.00 Build 0)  -->
<svg version="1.1" id="图层_1" xmlns="http://www.w3.org/2000/svg" xmlns:xlink="http://www.w3.org/1999/xlink" x="0px" y="0px"
	 viewBox="-320 495.5 200 200" style="enable-background:new -320 495.5 200 200;" xml:space="preserve">
<style type="text/css">
	.st0{fill:#737779;}
</style>
<path class="st0" d="M-220,547.6c-3.9,0-7.7,0.3-11.3,0.8c-4.6,0.7-8.8-2.4-9.5-6.7c-0.7-4.4,2.4-8.5,7-9.1c4.4-0.6,9-1,13.7-1
	c34.3,0,59.2,17.8,75.3,34.7c8.8,9.4,16.3,19.8,22.4,31.1c0.5,0.9,1,1.9,1.5,2.9l0.1,0.2l0,0.1v0l0,0l-7.6,3.3l7.6,3.3l0,0l0,0
	l-0.1,0.1c-1.4,2.8-2.8,5.5-4.4,8.1c-3.9,6.6-8.4,12.9-13.2,18.8c-3,3.4-8,3.9-11.6,1.2c-3.5-2.6-4.2-7.5-1.6-11
	c0.1-0.1,0.1-0.2,0.2-0.2c5.3-6.4,9.9-13.2,13.9-20.4c-5.3-9.7-11.9-18.6-19.4-26.7C-171.4,562-192.2,547.6-220,547.6z
	 M-128.3,603.8l7.6,3.3c1-2.1,1-4.5,0-6.5L-128.3,603.8z M-283.5,565.8c1.6,1.4,2.6,3.4,2.7,5.6c0.1,2.1-0.7,4.2-2.2,5.8
	c-7.6,8.1-14.1,17-19.4,26.7c5.3,9.7,11.9,18.6,19.4,26.7c14.3,15.1,35.2,29.5,62.9,29.5c8.9,0,17.8-1.5,26.2-4.5
	c4.3-1.4,9,0.7,10.6,4.8c1.6,4.1-0.5,8.6-4.7,10.3c-10.3,3.7-21.1,5.6-32.1,5.6c-34.3,0-59.2-17.8-75.3-34.7
	c-8.8-9.4-16.3-19.8-22.4-31.1c-0.5-0.9-1-1.9-1.5-2.9l-0.1-0.2l0-0.1l0,0v0l7.6-3.3l-7.6-3.3l0,0l0,0l0-0.1l0.1-0.2l0.3-0.6
	c1.7-3.4,3.6-6.7,5.6-10c5.2-8.4,11.2-16.2,17.9-23.3c1.5-1.6,3.6-2.5,5.8-2.6C-287.3,563.6-285.1,564.3-283.5,565.8L-283.5,565.8z
	 M-311.7,603.8l-7.6-3.3c-1,2.1-1,4.5,0,6.5C-319.3,607.1-311.7,603.8-311.7,603.8z"/>
<path class="st0" d="M-228.2,566.7c0-4.5,3.7-8.1,8.3-8.1c25,0,44.8,20.4,44.8,44.9c0,2.9-1.6,5.5-4.1,7c-2.6,1.4-5.7,1.4-8.3,0
	c-2.5-1.4-4.1-4.1-4.1-7c0-16.2-12.9-28.8-28.2-28.8C-224.5,574.8-228.2,571.2-228.2,566.7z M-253.8,587.6c4.5,0.9,7.3,5.2,6.4,9.6
	c-0.5,2.1-0.7,4.2-0.7,6.4c0,16.2,12.9,28.8,28.2,28.8c2.2,0,4.3-0.3,6.3-0.7c4.4-1,8.9,1.6,10,5.9c1.1,4.3-1.7,8.7-6.1,9.7
	c-3.4,0.8-6.8,1.2-10.2,1.2c-25,0-44.8-20.4-44.8-44.9c0-3.3,0.4-6.6,1.1-9.8c0.5-2.1,1.8-3.9,3.6-5.1
	C-258.2,587.6-256,587.2-253.8,587.6L-253.8,587.6L-253.8,587.6z M-300.4,517.3c3.3-3.1,8.4-3.1,11.7,0l149.2,145.1
	c3.1,3.2,3.1,8.2-0.1,11.3c-3.2,3.1-8.3,3.2-11.6,0.1l-149.2-145.1c-3.1-3-3.2-8-0.2-11.2C-300.6,517.4-300.5,517.4-300.4,517.3z"/>
</svg>
